<svg xmlns="http://www.w3.org/2000/svg" xmlns:xlink="http://www.w3.org/1999/xlink" width="500" zoomAndPan="magnify" viewBox="0 0 375 374.999991" height="500" preserveAspectRatio="xMidYMid meet" version="1.0"><defs><g/><clipPath id="0efd8502b8"><path d="M 22.546875 172.546875 L 52.453125 172.546875 L 52.453125 202.453125 L 22.546875 202.453125 Z M 22.546875 172.546875 " clip-rule="nonzero"/></clipPath><clipPath id="cb7f17114f"><path d="M 37.5 172.546875 C 29.242188 172.546875 22.546875 179.242188 22.546875 187.5 C 22.546875 195.757812 29.242188 202.453125 37.5 202.453125 C 45.757812 202.453125 52.453125 195.757812 52.453125 187.5 C 52.453125 179.242188 45.757812 172.546875 37.5 172.546875 Z M 37.5 172.546875 " clip-rule="nonzero"/></clipPath><clipPath id="0ebf87f978"><path d="M 24.742188 191.207031 L 31.535156 191.207031 L 31.535156 192.523438 L 24.742188 192.523438 Z M 24.742188 191.207031 " clip-rule="nonzero"/></clipPath><clipPath id="2382ad338e"><path d="M 31.578125 185.5 L 49.578125 185.5 L 49.578125 186.859375 L 31.578125 186.859375 Z M 31.578125 185.5 " clip-rule="nonzero"/></clipPath><clipPath id="6a54221e6d"><path d="M 31.1875 185.5 L 32.507812 185.5 L 32.507812 192.523438 L 31.1875 192.523438 Z M 31.1875 185.5 " clip-rule="nonzero"/></clipPath><clipPath id="e7419e361e"><path d="M 24.742188 188.863281 L 29.550781 188.863281 L 29.550781 190.179688 L 24.742188 190.179688 Z M 24.742188 188.863281 " clip-rule="nonzero"/></clipPath><clipPath id="3f129aa7d3"><path d="M 28.230469 183.53125 L 29.550781 183.53125 L 29.550781 190.179688 L 28.230469 190.179688 Z M 28.230469 183.53125 " clip-rule="nonzero"/></clipPath><clipPath id="a183595dba"><path d="M 28.230469 183.105469 L 37.5 183.105469 L 37.5 184.425781 L 28.230469 184.425781 Z M 28.230469 183.105469 " clip-rule="nonzero"/></clipPath><clipPath id="f89b538ef2"><path d="M 37.5 179.496094 L 49.566406 179.496094 L 49.566406 185.207031 L 37.5 185.207031 Z M 37.5 179.496094 " clip-rule="nonzero"/></clipPath></defs><rect x="-37.5" width="450" fill="#ffffff" y="-37.499999" height="449.999989" fill-opacity="1"/><rect x="-37.5" width="450" fill="#ffffff" y="-37.499999" height="449.999989" fill-opacity="1"/><g clip-path="url(#0efd8502b8)"><g clip-path="url(#cb7f17114f)"><path fill="#00cbff" d="M 22.546875 172.546875 L 52.453125 172.546875 L 52.453125 202.453125 L 22.546875 202.453125 Z M 22.546875 172.546875 " fill-opacity="1" fill-rule="nonzero"/></g></g><g clip-path="url(#0ebf87f978)"><path fill="#ffffff" d="M 24.742188 191.207031 L 31.539062 191.207031 L 31.539062 192.523438 L 24.742188 192.523438 Z M 24.742188 191.207031 " fill-opacity="1" fill-rule="nonzero"/></g><g clip-path="url(#2382ad338e)"><path fill="#ffffff" d="M 31.578125 185.5 L 49.578125 185.5 L 49.578125 186.859375 L 31.578125 186.859375 Z M 31.578125 185.5 " fill-opacity="1" fill-rule="nonzero"/></g><g fill="#ffffff" fill-opacity="1"><g transform="translate(31.53666, 192.085494)"><g><path d="M 5.296875 -6.609375 L 5.296875 -5.515625 L 3.390625 -5.515625 L 3.390625 0 L 2.09375 0 L 2.09375 -5.515625 L 0.1875 -5.515625 L 0.1875 -6.609375 Z M 5.296875 -6.609375 "/></g></g></g><g clip-path="url(#6a54221e6d)"><path fill="#ffffff" d="M 32.507812 185.5 L 32.507812 192.527344 L 31.1875 192.527344 L 31.1875 185.5 Z M 32.507812 185.5 " fill-opacity="1" fill-rule="nonzero"/></g><g clip-path="url(#e7419e361e)"><path fill="#ffffff" d="M 24.742188 188.863281 L 29.546875 188.863281 L 29.546875 190.179688 L 24.742188 190.179688 Z M 24.742188 188.863281 " fill-opacity="1" fill-rule="nonzero"/></g><g clip-path="url(#3f129aa7d3)"><path fill="#ffffff" d="M 29.550781 183.53125 L 29.550781 190.179688 L 28.230469 190.179688 L 28.230469 183.53125 Z M 29.550781 183.53125 " fill-opacity="1" fill-rule="nonzero"/></g><g clip-path="url(#a183595dba)"><path fill="#ffffff" d="M 37.5 184.425781 L 28.230469 184.425781 L 28.230469 183.105469 L 37.5 183.105469 Z M 37.5 184.425781 " fill-opacity="1" fill-rule="nonzero"/></g><g clip-path="url(#f89b538ef2)"><path fill="#1c2c30" d="M 49.578125 185.09375 L 43.308594 185.261719 L 37.5 185.179688 Z M 49.578125 184.851562 L 43.308594 185.015625 L 37.5 184.933594 Z M 46.269531 181.160156 C 46.269531 181.019531 46.382812 180.902344 46.527344 180.902344 C 46.667969 180.902344 46.785156 181.019531 46.785156 181.160156 C 46.785156 181.300781 46.667969 181.417969 46.527344 181.417969 C 46.382812 181.417969 46.269531 181.300781 46.269531 181.160156 Z M 45.164062 183.59375 C 45.164062 183.453125 45.28125 183.335938 45.421875 183.335938 C 45.5625 183.335938 45.679688 183.453125 45.679688 183.59375 C 45.679688 183.734375 45.5625 183.851562 45.421875 183.851562 C 45.28125 183.851562 45.164062 183.734375 45.164062 183.59375 Z M 46.640625 183.0625 C 46.640625 182.921875 46.757812 182.808594 46.898438 182.808594 C 47.042969 182.808594 47.15625 182.921875 47.15625 183.0625 C 47.15625 183.207031 47.042969 183.320312 46.898438 183.320312 C 46.757812 183.320312 46.640625 183.207031 46.640625 183.0625 Z M 45.253906 181.230469 C 45.253906 181.089844 45.367188 180.972656 45.507812 180.972656 C 45.652344 180.972656 45.765625 181.089844 45.765625 181.230469 C 45.765625 181.371094 45.652344 181.488281 45.507812 181.488281 C 45.367188 181.488281 45.253906 181.371094 45.253906 181.230469 Z M 42.949219 181.378906 C 42.949219 181.238281 43.066406 181.125 43.207031 181.125 C 43.351562 181.125 43.464844 181.238281 43.464844 181.378906 C 43.464844 181.523438 43.351562 181.636719 43.207031 181.636719 C 43.066406 181.636719 42.949219 181.523438 42.949219 181.378906 Z M 44.132812 182.84375 C 44.132812 182.703125 44.25 182.589844 44.390625 182.589844 C 44.53125 182.589844 44.648438 182.703125 44.648438 182.84375 C 44.648438 182.988281 44.53125 183.101562 44.390625 183.101562 C 44.25 183.101562 44.132812 182.988281 44.132812 182.84375 Z M 41.65625 183.722656 C 41.65625 183.582031 41.773438 183.46875 41.914062 183.46875 C 42.054688 183.46875 42.171875 183.582031 42.171875 183.722656 C 42.171875 183.867188 42.054688 183.980469 41.914062 183.980469 C 41.773438 183.980469 41.65625 183.867188 41.65625 183.722656 Z M 41.621094 182.519531 C 41.621094 182.378906 41.734375 182.261719 41.875 182.261719 C 42.019531 182.261719 42.132812 182.378906 42.132812 182.519531 C 42.132812 182.660156 42.019531 182.777344 41.875 182.777344 C 41.734375 182.777344 41.621094 182.660156 41.621094 182.519531 Z M 40.535156 182.109375 C 40.535156 181.96875 40.648438 181.851562 40.792969 181.851562 C 40.933594 181.851562 41.050781 181.96875 41.050781 182.109375 C 41.050781 182.25 40.933594 182.367188 40.792969 182.367188 C 40.648438 182.367188 40.535156 182.25 40.535156 182.109375 Z M 39.890625 183.332031 C 39.890625 183.191406 40.003906 183.078125 40.148438 183.078125 C 40.289062 183.078125 40.402344 183.191406 40.402344 183.332031 C 40.402344 183.476562 40.289062 183.589844 40.148438 183.589844 C 40.003906 183.589844 39.890625 183.476562 39.890625 183.332031 Z M 40.707031 182.449219 C 40.675781 182.4375 40.640625 182.425781 40.613281 182.40625 C 40.496094 182.605469 40.378906 182.804688 40.261719 183.003906 C 40.296875 183.015625 40.328125 183.03125 40.355469 183.054688 C 40.472656 182.851562 40.589844 182.648438 40.707031 182.449219 Z M 41.914062 183.378906 C 41.90625 183.207031 41.894531 183.035156 41.886719 182.867188 C 41.882812 182.867188 41.882812 182.867188 41.875 182.867188 C 41.84375 182.867188 41.8125 182.863281 41.78125 182.855469 C 41.792969 183.035156 41.800781 183.214844 41.808594 183.394531 C 41.84375 183.382812 41.878906 183.378906 41.914062 183.378906 Z M 46.613281 183.261719 C 46.59375 183.234375 46.578125 183.203125 46.566406 183.167969 C 46.289062 183.257812 46.011719 183.351562 45.734375 183.441406 C 45.75 183.472656 45.761719 183.507812 45.765625 183.542969 C 46.050781 183.449219 46.332031 183.355469 46.613281 183.261719 Z M 44.695312 183.015625 C 44.675781 183.042969 44.65625 183.074219 44.628906 183.09375 C 44.792969 183.207031 44.957031 183.316406 45.121094 183.425781 C 45.136719 183.394531 45.15625 183.367188 45.183594 183.34375 C 45.019531 183.234375 44.855469 183.121094 44.695312 183.015625 Z M 45.75 181.480469 C 45.726562 181.503906 45.695312 181.527344 45.664062 181.539062 C 45.996094 181.96875 46.324219 182.394531 46.652344 182.820312 C 46.675781 182.792969 46.707031 182.773438 46.734375 182.757812 C 46.40625 182.332031 46.078125 181.90625 45.75 181.480469 Z M 45.164062 181.285156 C 44.910156 181.382812 44.65625 181.484375 44.402344 181.582031 L 44.394531 181.582031 C 44.117188 181.515625 43.835938 181.449219 43.554688 181.382812 C 43.554688 181.417969 43.550781 181.453125 43.539062 181.488281 C 43.824219 181.554688 44.109375 181.621094 44.390625 181.6875 C 44.402344 181.6875 44.414062 181.6875 44.421875 181.683594 C 44.679688 181.585938 44.9375 181.484375 45.195312 181.382812 C 45.183594 181.351562 45.171875 181.316406 45.164062 181.285156 Z M 44.570312 182.546875 C 44.597656 182.566406 44.625 182.589844 44.648438 182.613281 C 44.878906 182.253906 45.109375 181.894531 45.339844 181.535156 C 45.308594 181.515625 45.28125 181.496094 45.257812 181.46875 C 45.027344 181.828125 44.800781 182.1875 44.570312 182.546875 Z M 41.136719 182.164062 C 41.128906 182.199219 41.117188 182.234375 41.101562 182.265625 C 41.246094 182.328125 41.390625 182.390625 41.535156 182.453125 C 41.542969 182.417969 41.554688 182.386719 41.570312 182.355469 C 41.425781 182.292969 41.28125 182.226562 41.136719 182.164062 Z M 46.628906 181.484375 C 46.597656 181.496094 46.5625 181.5 46.527344 181.5 L 46.800781 182.730469 C 46.832031 182.722656 46.867188 182.714844 46.898438 182.714844 C 46.898438 182.714844 46.902344 182.714844 46.902344 182.714844 Z M 41.121094 182 C 41.683594 181.667969 42.25 181.339844 42.8125 181.011719 L 42.824219 181.007812 L 42.828125 181.015625 C 42.871094 181.058594 42.910156 181.105469 42.949219 181.148438 C 42.972656 181.121094 43 181.101562 43.03125 181.082031 C 42.996094 181.042969 42.960938 181.003906 42.925781 180.964844 L 42.914062 180.953125 L 42.925781 180.945312 C 42.976562 180.914062 43.027344 180.886719 43.082031 180.855469 C 43.648438 180.585938 44.21875 180.316406 44.785156 180.046875 L 44.792969 180.042969 L 44.796875 180.050781 C 44.984375 180.179688 45.171875 180.308594 45.359375 180.4375 L 45.363281 180.441406 L 45.363281 180.449219 C 45.375 180.597656 45.390625 180.75 45.402344 180.898438 C 45.433594 180.890625 45.46875 180.882812 45.503906 180.882812 C 45.496094 180.769531 45.484375 180.660156 45.476562 180.546875 L 45.472656 180.519531 L 46.210938 181.035156 C 46.226562 181 46.242188 180.972656 46.265625 180.945312 L 45.460938 180.386719 L 45.460938 180.378906 C 45.460938 180.351562 45.457031 180.328125 45.453125 180.300781 L 45.453125 180.292969 L 45.460938 180.289062 C 45.761719 180.175781 46.085938 180.140625 46.402344 180.207031 C 46.640625 180.257812 46.867188 180.363281 47.054688 180.515625 C 47.121094 180.566406 47.179688 180.621094 47.234375 180.683594 L 47.246094 180.695312 L 46.792969 180.953125 C 46.816406 180.980469 46.832031 181.011719 46.84375 181.042969 L 47.308594 180.777344 L 47.316406 180.785156 C 47.386719 180.878906 47.449219 180.988281 47.496094 181.097656 C 47.640625 181.429688 47.65625 181.796875 47.582031 182.144531 C 47.582031 182.160156 47.585938 182.179688 47.59375 182.191406 C 47.917969 182.539062 48.175781 182.96875 48.183594 183.453125 C 48.183594 183.605469 48.160156 183.757812 48.117188 183.902344 L 48.109375 183.921875 L 48.09375 183.910156 C 47.796875 183.6875 47.5 183.460938 47.199219 183.238281 C 47.183594 183.265625 47.160156 183.292969 47.136719 183.316406 C 47.445312 183.550781 47.757812 183.785156 48.066406 184.019531 L 48.074219 184.023438 L 48.070312 184.035156 C 47.976562 184.261719 47.839844 184.476562 47.683594 184.664062 L 47.679688 184.671875 L 47.671875 184.671875 C 46.988281 184.671875 46.304688 184.671875 45.621094 184.671875 L 45.609375 184.671875 L 45.605469 184.660156 C 45.582031 184.414062 45.558594 184.167969 45.539062 183.921875 C 45.503906 183.933594 45.46875 183.941406 45.433594 183.941406 C 45.457031 184.179688 45.480469 184.417969 45.503906 184.65625 L 45.503906 184.671875 L 45.488281 184.671875 C 45.242188 184.671875 44.992188 184.671875 44.742188 184.671875 L 44.707031 184.671875 L 44.734375 184.648438 C 44.746094 184.636719 44.753906 184.621094 44.753906 184.605469 C 44.726562 184.175781 44.703125 183.75 44.675781 183.320312 C 44.675781 183.300781 44.660156 183.285156 44.644531 183.277344 C 44.566406 183.246094 44.492188 183.222656 44.414062 183.191406 C 44.40625 183.195312 44.398438 183.195312 44.390625 183.195312 C 44.296875 183.195312 44.210938 183.15625 44.148438 183.09375 C 44.136719 183.089844 44.121094 183.085938 44.109375 183.082031 L 44.074219 183.066406 L 44.109375 183.054688 C 44.109375 183.054688 44.109375 183.054688 44.113281 183.054688 C 44.089844 183.027344 44.074219 182.996094 44.0625 182.964844 C 44.019531 182.980469 43.972656 182.996094 43.929688 183.011719 L 43.925781 183.015625 L 43.921875 183.011719 C 43.789062 182.964844 43.65625 182.914062 43.523438 182.867188 L 43.519531 182.867188 C 43.273438 182.652344 43.023438 182.433594 42.773438 182.21875 L 42.765625 182.214844 L 42.773438 182.203125 C 42.777344 182.195312 42.785156 182.183594 42.789062 182.175781 L 42.792969 182.167969 L 42.796875 182.167969 C 42.929688 182.113281 43.0625 182.058594 43.191406 182.003906 L 43.199219 182 L 43.207031 182.003906 C 43.496094 182.234375 43.789062 182.460938 44.078125 182.691406 C 44.09375 182.660156 44.113281 182.628906 44.140625 182.605469 C 43.839844 182.371094 43.539062 182.132812 43.242188 181.898438 C 43.226562 181.886719 43.203125 181.886719 43.1875 181.894531 C 43.09375 181.933594 43.003906 181.96875 42.914062 182.007812 L 42.878906 182.023438 L 42.898438 181.988281 C 42.953125 181.890625 43.007812 181.796875 43.066406 181.699219 C 43.035156 181.683594 43.003906 181.664062 42.976562 181.640625 C 42.894531 181.789062 42.808594 181.9375 42.722656 182.085938 L 42.71875 182.089844 L 42.714844 182.089844 C 42.53125 182.167969 42.347656 182.242188 42.164062 182.320312 C 42.183594 182.347656 42.199219 182.378906 42.207031 182.414062 C 42.351562 182.355469 42.492188 182.296875 42.636719 182.238281 L 42.648438 182.230469 L 42.652344 182.242188 C 42.65625 182.25 42.660156 182.257812 42.667969 182.265625 C 42.933594 182.492188 43.195312 182.722656 43.460938 182.953125 C 43.464844 182.957031 43.472656 182.957031 43.476562 182.960938 C 43.566406 182.992188 43.65625 183.023438 43.742188 183.058594 L 43.777344 183.070312 L 43.742188 183.082031 C 43.441406 183.195312 43.136719 183.308594 42.832031 183.421875 L 42.824219 183.421875 L 42.820312 183.417969 C 42.589844 183.195312 42.363281 182.976562 42.132812 182.753906 C 42.109375 182.78125 42.082031 182.800781 42.050781 182.820312 C 42.292969 183.050781 42.53125 183.285156 42.769531 183.515625 C 42.988281 183.855469 43.203125 184.191406 43.421875 184.527344 L 43.449219 184.574219 L 43.402344 184.546875 C 43.011719 184.324219 42.617188 184.101562 42.226562 183.878906 C 42.210938 183.910156 42.191406 183.941406 42.164062 183.964844 C 42.566406 184.191406 42.964844 184.417969 43.367188 184.644531 L 43.410156 184.671875 L 43.359375 184.671875 C 42.921875 184.671875 42.484375 184.671875 42.042969 184.671875 L 42.035156 184.671875 L 42.03125 184.660156 C 42.011719 184.460938 41.988281 184.265625 41.96875 184.070312 C 41.949219 184.070312 41.929688 184.074219 41.914062 184.074219 C 41.898438 184.074219 41.878906 184.070312 41.863281 184.070312 C 41.875 184.199219 41.890625 184.328125 41.90625 184.457031 L 41.910156 184.511719 L 41.882812 184.464844 C 41.6875 184.164062 41.492188 183.863281 41.300781 183.566406 L 41.296875 183.566406 C 41.292969 183.550781 41.277344 183.542969 41.265625 183.539062 C 41.007812 183.484375 40.75 183.425781 40.492188 183.371094 C 40.488281 183.40625 40.480469 183.441406 40.464844 183.472656 C 40.714844 183.527344 40.964844 183.582031 41.214844 183.632812 L 41.222656 183.636719 L 41.226562 183.640625 C 41.441406 183.976562 41.660156 184.3125 41.878906 184.648438 L 41.890625 184.671875 L 41.867188 184.671875 C 41.144531 184.671875 40.421875 184.671875 39.699219 184.671875 L 39.679688 184.671875 L 39.683594 184.652344 C 39.808594 184.324219 39.933594 183.996094 40.058594 183.667969 C 40.023438 183.660156 39.992188 183.644531 39.960938 183.628906 C 39.832031 183.972656 39.703125 184.316406 39.570312 184.664062 L 39.566406 184.671875 L 39.558594 184.671875 C 39.394531 184.671875 39.226562 184.671875 39.0625 184.671875 L 39.058594 184.671875 L 39.054688 184.667969 C 38.796875 184.480469 38.628906 184.21875 38.570312 183.90625 C 38.53125 183.675781 38.554688 183.433594 38.628906 183.210938 C 38.65625 183.125 38.691406 183.042969 38.738281 182.964844 L 38.742188 182.957031 L 38.75 182.960938 C 39.101562 183.070312 39.449219 183.183594 39.800781 183.296875 C 39.804688 183.261719 39.816406 183.226562 39.828125 183.195312 C 39.523438 183.097656 39.21875 183 38.910156 182.902344 L 38.875 182.890625 L 38.910156 182.875 C 39.4375 182.679688 39.964844 182.480469 40.492188 182.285156 C 40.472656 182.253906 40.460938 182.222656 40.453125 182.1875 C 39.9375 182.382812 39.417969 182.574219 38.902344 182.769531 L 38.851562 182.789062 L 38.886719 182.75 C 38.910156 182.722656 38.9375 182.695312 38.964844 182.671875 C 39.085938 182.558594 39.246094 182.472656 39.417969 182.488281 C 39.445312 182.488281 39.46875 182.464844 39.472656 182.4375 C 39.472656 182.429688 39.472656 182.425781 39.46875 182.417969 C 39.449219 182.347656 39.460938 182.265625 39.476562 182.195312 C 39.523438 182.007812 39.628906 181.828125 39.757812 181.683594 L 39.761719 181.675781 L 39.769531 181.679688 C 39.773438 181.683594 39.777344 181.683594 39.78125 181.683594 C 40.007812 181.785156 40.238281 181.886719 40.464844 181.984375 C 40.480469 181.953125 40.496094 181.917969 40.519531 181.890625 C 40.300781 181.796875 40.078125 181.699219 39.855469 181.605469 L 39.835938 181.597656 L 39.851562 181.582031 C 40.007812 181.4375 40.195312 181.328125 40.402344 181.273438 C 40.628906 181.210938 40.859375 181.21875 41.089844 181.269531 C 41.117188 181.277344 41.144531 181.261719 41.152344 181.230469 C 41.152344 181.230469 41.152344 181.226562 41.152344 181.226562 C 41.183594 181.058594 41.226562 180.894531 41.292969 180.742188 C 41.394531 180.507812 41.546875 180.304688 41.777344 180.191406 C 41.859375 180.152344 41.941406 180.125 42.027344 180.109375 L 42.042969 180.109375 L 42.042969 180.121094 C 42.046875 180.136719 42.050781 180.144531 42.058594 180.15625 C 42.285156 180.410156 42.511719 180.660156 42.742188 180.917969 L 42.753906 180.925781 L 42.738281 180.933594 C 42.183594 181.257812 41.628906 181.582031 41.074219 181.90625 C 41.09375 181.933594 41.109375 181.964844 41.121094 182 Z M 45.300781 180.269531 C 45.140625 180.160156 44.984375 180.050781 44.828125 179.941406 C 44.808594 179.933594 44.789062 179.929688 44.773438 179.941406 C 44.191406 180.214844 43.613281 180.488281 43.035156 180.761719 C 43.03125 180.761719 43.03125 180.765625 43.027344 180.765625 C 42.96875 180.800781 42.910156 180.835938 42.851562 180.867188 L 42.84375 180.875 L 42.835938 180.867188 C 42.613281 180.617188 42.386719 180.367188 42.164062 180.117188 L 42.144531 180.097656 L 42.171875 180.09375 C 42.292969 180.089844 42.421875 180.101562 42.542969 180.121094 C 42.761719 180.164062 42.980469 180.238281 43.1875 180.328125 C 43.210938 180.339844 43.242188 180.328125 43.253906 180.308594 L 43.253906 180.304688 C 43.335938 180.179688 43.433594 180.066406 43.546875 179.96875 C 43.738281 179.800781 43.96875 179.679688 44.222656 179.644531 C 44.496094 179.605469 44.761719 179.671875 44.992188 179.820312 C 45.121094 179.902344 45.230469 180.003906 45.332031 180.117188 L 45.335938 180.117188 L 45.335938 180.125 C 45.339844 180.15625 45.339844 180.1875 45.34375 180.21875 L 45.34375 180.226562 L 45.339844 180.230469 C 45.328125 180.238281 45.320312 180.25 45.320312 180.261719 L 45.316406 180.28125 Z M 43.628906 184.664062 C 43.386719 184.285156 43.144531 183.902344 42.898438 183.523438 L 42.890625 183.507812 L 42.90625 183.503906 C 43.242188 183.378906 43.582031 183.253906 43.921875 183.125 L 43.929688 183.125 C 44.140625 183.203125 44.355469 183.28125 44.566406 183.359375 L 44.574219 183.359375 L 44.574219 183.371094 C 44.601562 183.78125 44.625 184.195312 44.648438 184.609375 C 44.652344 184.625 44.65625 184.636719 44.667969 184.648438 L 44.695312 184.671875 L 44.660156 184.671875 C 44.320312 184.671875 43.980469 184.671875 43.640625 184.671875 L 43.632812 184.671875 Z M 45.4375 180.105469 L 45.4375 180.09375 C 45.433594 180.082031 45.429688 180.070312 45.425781 180.0625 C 45.3125 179.9375 45.191406 179.824219 45.046875 179.730469 C 44.792969 179.570312 44.507812 179.496094 44.207031 179.542969 C 43.9375 179.582031 43.6875 179.710938 43.480469 179.890625 C 43.371094 179.980469 43.277344 180.089844 43.195312 180.207031 L 43.1875 180.214844 L 43.179688 180.210938 C 42.980469 180.128906 42.773438 180.058594 42.558594 180.019531 C 42.285156 179.96875 41.988281 179.972656 41.734375 180.097656 C 41.476562 180.222656 41.308594 180.445312 41.199219 180.699219 C 41.136719 180.84375 41.09375 180.992188 41.0625 181.144531 L 41.058594 181.160156 L 41.046875 181.15625 C 40.824219 181.109375 40.59375 181.113281 40.375 181.171875 C 40.109375 181.246094 39.878906 181.394531 39.699219 181.59375 C 39.554688 181.75 39.429688 181.960938 39.378906 182.167969 C 39.363281 182.234375 39.351562 182.304688 39.355469 182.367188 L 39.359375 182.382812 L 39.347656 182.382812 C 39.171875 182.394531 39.019531 182.480469 38.894531 182.59375 C 38.808594 182.671875 38.734375 182.765625 38.675781 182.867188 C 38.671875 182.867188 38.671875 182.867188 38.671875 182.867188 L 38.671875 182.871094 C 38.613281 182.964844 38.566406 183.070312 38.53125 183.175781 C 38.449219 183.414062 38.425781 183.675781 38.46875 183.925781 C 38.53125 184.273438 38.722656 184.554688 39.007812 184.761719 C 39.019531 184.769531 39.03125 184.773438 39.042969 184.773438 C 39.230469 184.773438 39.417969 184.773438 39.605469 184.773438 C 40.398438 184.773438 41.191406 184.773438 41.988281 184.773438 C 43.886719 184.773438 45.789062 184.773438 47.6875 184.773438 L 47.703125 184.773438 C 47.71875 184.773438 47.734375 184.765625 47.742188 184.753906 C 47.925781 184.539062 48.085938 184.292969 48.183594 184.027344 C 48.183594 184.023438 48.183594 184.023438 48.183594 184.019531 C 48.25 183.839844 48.285156 183.648438 48.285156 183.453125 C 48.28125 182.949219 48.023438 182.511719 47.695312 182.144531 L 47.691406 182.140625 L 47.691406 182.132812 C 47.761719 181.773438 47.738281 181.398438 47.59375 181.054688 C 47.488281 180.8125 47.328125 180.601562 47.121094 180.4375 C 46.917969 180.269531 46.679688 180.160156 46.421875 180.105469 C 46.101562 180.039062 45.769531 180.066406 45.460938 180.179688 L 45.445312 180.183594 L 45.441406 180.167969 C 45.441406 180.148438 45.4375 180.125 45.4375 180.105469 " fill-opacity="1" fill-rule="evenodd"/></g><g fill="#ffffff" fill-opacity="1"><g transform="translate(35.925156, 192.164761)"><g><path d="M 4.34375 -4.140625 L 4.34375 -3.3125 L 1.03125 -3.3125 L 1.03125 -2.484375 L 4.34375 -2.484375 L 4.34375 -1.65625 L 1.03125 -1.65625 L 1.03125 -0.828125 L 4.34375 -0.828125 L 4.34375 0 L 1.03125 0 C 0.882812 0 0.742188 -0.0351562 0.609375 -0.109375 C 0.484375 -0.179688 0.382812 -0.28125 0.3125 -0.40625 C 0.238281 -0.53125 0.203125 -0.671875 0.203125 -0.828125 L 0.203125 -3.3125 C 0.203125 -3.457031 0.238281 -3.59375 0.3125 -3.71875 C 0.382812 -3.851562 0.484375 -3.957031 0.609375 -4.03125 C 0.742188 -4.101562 0.882812 -4.140625 1.03125 -4.140625 Z M 4.34375 -4.140625 "/></g></g></g><g fill="#ffffff" fill-opacity="1"><g transform="translate(40.475424, 192.164761)"><g><path d="M 4.34375 0 L 1.03125 0 C 0.882812 0 0.742188 -0.0351562 0.609375 -0.109375 C 0.484375 -0.179688 0.382812 -0.28125 0.3125 -0.40625 C 0.238281 -0.53125 0.203125 -0.671875 0.203125 -0.828125 L 0.203125 -3.3125 C 0.203125 -3.457031 0.238281 -3.59375 0.3125 -3.71875 C 0.382812 -3.851562 0.484375 -3.957031 0.609375 -4.03125 C 0.742188 -4.101562 0.882812 -4.140625 1.03125 -4.140625 L 4.34375 -4.140625 L 4.34375 -3.3125 L 1.03125 -3.3125 L 1.03125 -0.828125 L 4.34375 -0.828125 Z M 4.34375 0 "/></g></g></g><g fill="#ffffff" fill-opacity="1"><g transform="translate(45.025692, 192.164761)"><g><path d="M 3.515625 -2.484375 L 3.515625 -4.140625 L 4.34375 -4.140625 L 4.34375 0 L 3.515625 0 L 3.515625 -1.65625 L 1.03125 -1.65625 L 1.03125 0 L 0.203125 0 L 0.203125 -4.140625 L 1.03125 -4.140625 L 1.03125 -2.484375 Z M 3.515625 -2.484375 "/></g></g></g><g fill="#ffffff" fill-opacity="1"><g transform="translate(55.821802, 196.454618)"><g><path d="M 9.3125 0.3125 C 7.96875 0.3125 6.765625 0.128906 5.703125 -0.234375 C 4.640625 -0.597656 3.753906 -1.078125 3.046875 -1.671875 C 2.335938 -2.265625 1.804688 -2.914062 1.453125 -3.625 L 2.828125 -5.296875 L 3.1875 -5.296875 C 4.507812 -3.066406 6.550781 -1.953125 9.3125 -1.953125 C 10.914062 -1.953125 12.109375 -2.285156 12.890625 -2.953125 C 13.671875 -3.628906 14.0625 -4.5625 14.0625 -5.75 C 14.0625 -6.457031 13.929688 -7.050781 13.671875 -7.53125 C 13.421875 -8.019531 13 -8.4375 12.40625 -8.78125 C 11.8125 -9.125 11.003906 -9.421875 9.984375 -9.671875 L 7.484375 -10.28125 C 5.628906 -10.726562 4.257812 -11.441406 3.375 -12.421875 C 2.5 -13.398438 2.0625 -14.632812 2.0625 -16.125 C 2.0625 -17.1875 2.332031 -18.132812 2.875 -18.96875 C 3.425781 -19.800781 4.222656 -20.445312 5.265625 -20.90625 C 6.316406 -21.375 7.570312 -21.609375 9.03125 -21.609375 C 10.632812 -21.609375 11.988281 -21.378906 13.09375 -20.921875 C 14.195312 -20.472656 15.078125 -19.800781 15.734375 -18.90625 L 14.515625 -17.25 L 14.15625 -17.25 C 13.539062 -18 12.8125 -18.546875 11.96875 -18.890625 C 11.132812 -19.242188 10.15625 -19.421875 9.03125 -19.421875 C 7.550781 -19.421875 6.4375 -19.132812 5.6875 -18.5625 C 4.9375 -17.988281 4.5625 -17.195312 4.5625 -16.1875 C 4.5625 -15.226562 4.835938 -14.460938 5.390625 -13.890625 C 5.941406 -13.328125 6.875 -12.890625 8.1875 -12.578125 L 10.734375 -11.96875 C 12.804688 -11.476562 14.304688 -10.726562 15.234375 -9.71875 C 16.160156 -8.71875 16.625 -7.4375 16.625 -5.875 C 16.625 -4.664062 16.351562 -3.597656 15.8125 -2.671875 C 15.28125 -1.742188 14.460938 -1.015625 13.359375 -0.484375 C 12.265625 0.046875 10.914062 0.3125 9.3125 0.3125 Z M 9.3125 0.3125 "/></g></g><g transform="translate(74.079268, 196.454618)"><g><path d="M 3.21875 0 L 3.21875 -21.296875 L 5.734375 -21.296875 L 5.734375 -12 L 6.171875 -12 L 14.921875 -21.296875 L 17.65625 -21.296875 L 17.65625 -20.9375 L 8.4375 -10.984375 L 18.390625 -0.359375 L 18.390625 0 L 15.515625 0 L 6.171875 -9.8125 L 5.734375 -9.8125 L 5.734375 0 Z M 3.21875 0 "/></g></g><g transform="translate(92.875859, 196.454618)"><g><path d="M 10.40625 0 L 7.90625 0 L 7.90625 -8.359375 L 0.546875 -21.296875 L 3.296875 -21.296875 L 9.03125 -11.328125 L 9.40625 -11.328125 L 15.09375 -21.296875 L 17.78125 -21.296875 L 10.40625 -8.359375 Z M 10.40625 0 "/></g></g><g transform="translate(111.191608, 196.454618)"><g/></g><g transform="translate(118.506251, 196.454618)"><g><path d="M 9.3125 0.3125 C 7.96875 0.3125 6.765625 0.128906 5.703125 -0.234375 C 4.640625 -0.597656 3.753906 -1.078125 3.046875 -1.671875 C 2.335938 -2.265625 1.804688 -2.914062 1.453125 -3.625 L 2.828125 -5.296875 L 3.1875 -5.296875 C 4.507812 -3.066406 6.550781 -1.953125 9.3125 -1.953125 C 10.914062 -1.953125 12.109375 -2.285156 12.890625 -2.953125 C 13.671875 -3.628906 14.0625 -4.5625 14.0625 -5.75 C 14.0625 -6.457031 13.929688 -7.050781 13.671875 -7.53125 C 13.421875 -8.019531 13 -8.4375 12.40625 -8.78125 C 11.8125 -9.125 11.003906 -9.421875 9.984375 -9.671875 L 7.484375 -10.28125 C 5.628906 -10.726562 4.257812 -11.441406 3.375 -12.421875 C 2.5 -13.398438 2.0625 -14.632812 2.0625 -16.125 C 2.0625 -17.1875 2.332031 -18.132812 2.875 -18.96875 C 3.425781 -19.800781 4.222656 -20.445312 5.265625 -20.90625 C 6.316406 -21.375 7.570312 -21.609375 9.03125 -21.609375 C 10.632812 -21.609375 11.988281 -21.378906 13.09375 -20.921875 C 14.195312 -20.472656 15.078125 -19.800781 15.734375 -18.90625 L 14.515625 -17.25 L 14.15625 -17.25 C 13.539062 -18 12.8125 -18.546875 11.96875 -18.890625 C 11.132812 -19.242188 10.15625 -19.421875 9.03125 -19.421875 C 7.550781 -19.421875 6.4375 -19.132812 5.6875 -18.5625 C 4.9375 -17.988281 4.5625 -17.195312 4.5625 -16.1875 C 4.5625 -15.226562 4.835938 -14.460938 5.390625 -13.890625 C 5.941406 -13.328125 6.875 -12.890625 8.1875 -12.578125 L 10.734375 -11.96875 C 12.804688 -11.476562 14.304688 -10.726562 15.234375 -9.71875 C 16.160156 -8.71875 16.625 -7.4375 16.625 -5.875 C 16.625 -4.664062 16.351562 -3.597656 15.8125 -2.671875 C 15.28125 -1.742188 14.460938 -1.015625 13.359375 -0.484375 C 12.265625 0.046875 10.914062 0.3125 9.3125 0.3125 Z M 9.3125 0.3125 "/></g></g><g transform="translate(136.763716, 196.454618)"><g><path d="M 11.78125 0.3125 C 9.90625 0.3125 8.238281 -0.113281 6.78125 -0.96875 C 5.332031 -1.832031 4.191406 -3.085938 3.359375 -4.734375 C 2.535156 -6.378906 2.125 -8.351562 2.125 -10.65625 C 2.125 -12.957031 2.535156 -14.929688 3.359375 -16.578125 C 4.191406 -18.222656 5.332031 -19.472656 6.78125 -20.328125 C 8.238281 -21.179688 9.90625 -21.609375 11.78125 -21.609375 C 13.769531 -21.609375 15.421875 -21.234375 16.734375 -20.484375 C 18.054688 -19.734375 19.007812 -18.597656 19.59375 -17.078125 L 18 -16.015625 L 17.625 -16.015625 C 17.050781 -17.234375 16.296875 -18.09375 15.359375 -18.59375 C 14.421875 -19.101562 13.226562 -19.359375 11.78125 -19.359375 C 10.4375 -19.359375 9.242188 -19.0625 8.203125 -18.46875 C 7.160156 -17.875 6.332031 -16.925781 5.71875 -15.625 C 5.113281 -14.332031 4.8125 -12.675781 4.8125 -10.65625 C 4.8125 -8.632812 5.113281 -6.976562 5.71875 -5.6875 C 6.332031 -4.394531 7.160156 -3.445312 8.203125 -2.84375 C 9.242188 -2.25 10.4375 -1.953125 11.78125 -1.953125 C 13.320312 -1.953125 14.582031 -2.296875 15.5625 -2.984375 C 16.539062 -3.679688 17.269531 -4.8125 17.75 -6.375 L 18.109375 -6.375 L 19.78125 -5.53125 C 19.28125 -3.644531 18.347656 -2.195312 16.984375 -1.1875 C 15.617188 -0.1875 13.882812 0.3125 11.78125 0.3125 Z M 11.78125 0.3125 "/></g></g><g transform="translate(157.658533, 196.454618)"><g><path d="M 11.6875 0.3125 C 9.84375 0.3125 8.203125 -0.0820312 6.765625 -0.875 C 5.328125 -1.675781 4.191406 -2.894531 3.359375 -4.53125 C 2.535156 -6.175781 2.125 -8.21875 2.125 -10.65625 C 2.125 -13.09375 2.535156 -15.128906 3.359375 -16.765625 C 4.191406 -18.398438 5.328125 -19.613281 6.765625 -20.40625 C 8.203125 -21.207031 9.84375 -21.609375 11.6875 -21.609375 C 13.53125 -21.609375 15.171875 -21.207031 16.609375 -20.40625 C 18.046875 -19.613281 19.175781 -18.398438 20 -16.765625 C 20.832031 -15.128906 21.25 -13.09375 21.25 -10.65625 C 21.25 -8.21875 20.832031 -6.175781 20 -4.53125 C 19.175781 -2.894531 18.046875 -1.675781 16.609375 -0.875 C 15.171875 -0.0820312 13.53125 0.3125 11.6875 0.3125 Z M 11.6875 -2.015625 C 13.90625 -2.015625 15.601562 -2.703125 16.78125 -4.078125 C 17.96875 -5.460938 18.5625 -7.65625 18.5625 -10.65625 C 18.5625 -13.644531 17.96875 -15.832031 16.78125 -17.21875 C 15.601562 -18.601562 13.90625 -19.296875 11.6875 -19.296875 C 7.101562 -19.296875 4.8125 -16.414062 4.8125 -10.65625 C 4.8125 -4.894531 7.101562 -2.015625 11.6875 -2.015625 Z M 11.6875 -2.015625 "/></g></g><g transform="translate(181.030419, 196.454618)"><g><path d="M 10.84375 -21.296875 C 12.3125 -21.296875 13.566406 -21.035156 14.609375 -20.515625 C 15.660156 -19.992188 16.460938 -19.242188 17.015625 -18.265625 C 17.566406 -17.285156 17.84375 -16.132812 17.84375 -14.8125 C 17.84375 -13.5 17.566406 -12.351562 17.015625 -11.375 C 16.460938 -10.40625 15.660156 -9.65625 14.609375 -9.125 C 13.566406 -8.59375 12.3125 -8.328125 10.84375 -8.328125 L 5.734375 -8.328125 L 5.734375 0 L 3.21875 0 L 3.21875 -21.296875 Z M 10.765625 -10.484375 C 13.734375 -10.484375 15.21875 -11.925781 15.21875 -14.8125 C 15.21875 -17.71875 13.734375 -19.171875 10.765625 -19.171875 L 5.734375 -19.171875 L 5.734375 -10.484375 Z M 10.765625 -10.484375 "/></g></g><g transform="translate(200.453564, 196.454618)"><g><path d="M 5.734375 -10.046875 L 5.734375 -2.0625 L 16.578125 -2.0625 L 16.578125 0 L 3.21875 0 L 3.21875 -21.296875 L 16.34375 -21.296875 L 16.34375 -19.234375 L 5.734375 -19.234375 L 5.734375 -12.109375 L 15.09375 -12.109375 L 15.09375 -10.046875 Z M 5.734375 -10.046875 "/></g></g><g transform="translate(218.448751, 196.454618)"><g/></g><g transform="translate(225.763394, 196.454618)"><g><path d="M 16.625 -21.296875 L 16.625 -19.171875 L 9.953125 -19.171875 L 9.953125 0 L 7.46875 0 L 7.46875 -19.171875 L 0.78125 -19.171875 L 0.78125 -21.296875 Z M 16.625 -21.296875 "/></g></g><g transform="translate(243.16117, 196.454618)"><g><path d="M 5.734375 -10.046875 L 5.734375 -2.0625 L 16.578125 -2.0625 L 16.578125 0 L 3.21875 0 L 3.21875 -21.296875 L 16.34375 -21.296875 L 16.34375 -19.234375 L 5.734375 -19.234375 L 5.734375 -12.109375 L 15.09375 -12.109375 L 15.09375 -10.046875 Z M 5.734375 -10.046875 "/></g></g><g transform="translate(261.156357, 196.454618)"><g><path d="M 11.78125 0.3125 C 9.90625 0.3125 8.238281 -0.113281 6.78125 -0.96875 C 5.332031 -1.832031 4.191406 -3.085938 3.359375 -4.734375 C 2.535156 -6.378906 2.125 -8.351562 2.125 -10.65625 C 2.125 -12.957031 2.535156 -14.929688 3.359375 -16.578125 C 4.191406 -18.222656 5.332031 -19.472656 6.78125 -20.328125 C 8.238281 -21.179688 9.90625 -21.609375 11.78125 -21.609375 C 13.769531 -21.609375 15.421875 -21.234375 16.734375 -20.484375 C 18.054688 -19.734375 19.007812 -18.597656 19.59375 -17.078125 L 18 -16.015625 L 17.625 -16.015625 C 17.050781 -17.234375 16.296875 -18.09375 15.359375 -18.59375 C 14.421875 -19.101562 13.226562 -19.359375 11.78125 -19.359375 C 10.4375 -19.359375 9.242188 -19.0625 8.203125 -18.46875 C 7.160156 -17.875 6.332031 -16.925781 5.71875 -15.625 C 5.113281 -14.332031 4.8125 -12.675781 4.8125 -10.65625 C 4.8125 -8.632812 5.113281 -6.976562 5.71875 -5.6875 C 6.332031 -4.394531 7.160156 -3.445312 8.203125 -2.84375 C 9.242188 -2.25 10.4375 -1.953125 11.78125 -1.953125 C 13.320312 -1.953125 14.582031 -2.296875 15.5625 -2.984375 C 16.539062 -3.679688 17.269531 -4.8125 17.75 -6.375 L 18.109375 -6.375 L 19.78125 -5.53125 C 19.28125 -3.644531 18.347656 -2.195312 16.984375 -1.1875 C 15.617188 -0.1875 13.882812 0.3125 11.78125 0.3125 Z M 11.78125 0.3125 "/></g></g><g transform="translate(282.051173, 196.454618)"><g><path d="M 16.796875 -12.65625 L 16.796875 -21.296875 L 19.296875 -21.296875 L 19.296875 0 L 16.796875 0 L 16.796875 -10.53125 L 5.734375 -10.53125 L 5.734375 0 L 3.21875 0 L 3.21875 -21.296875 L 5.734375 -21.296875 L 5.734375 -12.65625 Z M 16.796875 -12.65625 "/></g></g></g></svg>