<svg xmlns="http://www.w3.org/2000/svg" xmlns:xlink="http://www.w3.org/1999/xlink" width="500" zoomAndPan="magnify" viewBox="0 0 375 374.999991" height="500" preserveAspectRatio="xMidYMid meet" version="1.0"><defs><g/><clipPath id="24c1da2207"><path d="M 0 247.386719 L 102.570312 247.386719 L 102.570312 267.3125 L 0 267.3125 Z M 0 247.386719 " clip-rule="nonzero"/></clipPath><clipPath id="14e73114b3"><path d="M 103.214844 161.234375 L 375 161.234375 L 375 181.761719 L 103.214844 181.761719 Z M 103.214844 161.234375 " clip-rule="nonzero"/></clipPath><clipPath id="8fdf06fd40"><path d="M 97.285156 161.234375 L 117.210938 161.234375 L 117.210938 267.308594 L 97.285156 267.308594 Z M 97.285156 161.234375 " clip-rule="nonzero"/></clipPath><clipPath id="69ad894b74"><path d="M 0 211.988281 L 72.574219 211.988281 L 72.574219 231.914062 L 0 231.914062 Z M 0 211.988281 " clip-rule="nonzero"/></clipPath><clipPath id="e0a2d6d53a"><path d="M 52.632812 131.511719 L 72.558594 131.511719 L 72.558594 231.90625 L 52.632812 231.90625 Z M 52.632812 131.511719 " clip-rule="nonzero"/></clipPath><clipPath id="4b765799b7"><path d="M 52.625 125.09375 L 192.59375 125.09375 L 192.59375 145.019531 L 52.625 145.019531 Z M 52.625 125.09375 " clip-rule="nonzero"/></clipPath><clipPath id="911fcf3807"><path d="M 192.617188 71 L 374.835938 71 L 374.835938 156.828125 L 192.617188 156.828125 Z M 192.617188 71 " clip-rule="nonzero"/></clipPath></defs><g clip-path="url(#24c1da2207)"><path fill="#000000" d="M 0 247.386719 L 102.585938 247.386719 L 102.585938 267.3125 L 0 267.3125 Z M 0 247.386719 " fill-opacity="1" fill-rule="nonzero"/></g><g clip-path="url(#14e73114b3)"><path fill="#000000" d="M 103.214844 161.234375 L 375.007812 161.234375 L 375.007812 181.761719 L 103.214844 181.761719 Z M 103.214844 161.234375 " fill-opacity="1" fill-rule="nonzero"/></g><g fill="#000000" fill-opacity="1"><g transform="translate(102.57013, 260.671256)"><g><path d="M 80.0625 -99.875 L 80.0625 -83.28125 L 51.234375 -83.28125 L 51.234375 0 L 31.5625 0 L 31.5625 -83.28125 L 2.734375 -83.28125 L 2.734375 -99.875 Z M 80.0625 -99.875 "/></g></g></g><g clip-path="url(#8fdf06fd40)"><path fill="#000000" d="M 117.210938 161.234375 L 117.210938 267.320312 L 97.285156 267.320312 L 97.285156 161.234375 Z M 117.210938 161.234375 " fill-opacity="1" fill-rule="nonzero"/></g><g clip-path="url(#69ad894b74)"><path fill="#000000" d="M 0 211.988281 L 72.542969 211.988281 L 72.542969 231.914062 L 0 231.914062 Z M 0 211.988281 " fill-opacity="1" fill-rule="nonzero"/></g><g clip-path="url(#e0a2d6d53a)"><path fill="#000000" d="M 72.558594 131.511719 L 72.558594 231.917969 L 52.632812 231.917969 L 52.632812 131.511719 Z M 72.558594 131.511719 " fill-opacity="1" fill-rule="nonzero"/></g><g clip-path="url(#4b765799b7)"><path fill="#000000" d="M 192.59375 145.019531 L 52.648438 145.019531 L 52.648438 125.09375 L 192.59375 125.09375 Z M 192.59375 145.019531 " fill-opacity="1" fill-rule="nonzero"/></g><g clip-path="url(#911fcf3807)"><path fill="#1c2c30" d="M 374.976562 155.125 L 280.332031 157.621094 L 192.628906 156.371094 Z M 374.976562 151.445312 L 280.332031 153.945312 L 192.628906 152.695312 Z M 325.035156 95.714844 C 325.035156 93.578125 326.761719 91.828125 328.921875 91.828125 C 331.058594 91.828125 332.804688 93.578125 332.804688 95.714844 C 332.804688 97.851562 331.058594 99.597656 328.921875 99.597656 C 326.761719 99.597656 325.035156 97.851562 325.035156 95.714844 Z M 308.363281 132.445312 C 308.363281 130.308594 310.113281 128.5625 312.25 128.5625 C 314.386719 128.5625 316.136719 130.308594 316.136719 132.445312 C 316.136719 134.585938 314.386719 136.332031 312.25 136.332031 C 310.113281 136.332031 308.363281 134.585938 308.363281 132.445312 Z M 330.667969 124.449219 C 330.667969 122.292969 332.394531 120.566406 334.550781 120.566406 C 336.691406 120.566406 338.417969 122.292969 338.417969 124.449219 C 338.417969 126.585938 336.691406 128.316406 334.550781 128.316406 C 332.394531 128.316406 330.667969 126.585938 330.667969 124.449219 Z M 309.679688 96.761719 C 309.679688 94.625 311.410156 92.878906 313.546875 92.878906 C 315.703125 92.878906 317.429688 94.625 317.429688 96.761719 C 317.429688 98.902344 315.703125 100.648438 313.546875 100.648438 C 311.410156 100.648438 309.679688 98.902344 309.679688 96.761719 Z M 274.921875 99.023438 C 274.921875 96.886719 276.671875 95.140625 278.808594 95.140625 C 280.945312 95.140625 282.691406 96.886719 282.691406 99.023438 C 282.691406 101.183594 280.945312 102.910156 278.808594 102.910156 C 276.671875 102.910156 274.921875 101.183594 274.921875 99.023438 Z M 292.765625 121.140625 C 292.765625 119.003906 294.511719 117.277344 296.648438 117.277344 C 298.789062 117.277344 300.535156 119.003906 300.535156 121.140625 C 300.535156 123.296875 298.789062 125.027344 296.648438 125.027344 C 294.511719 125.027344 292.765625 123.296875 292.765625 121.140625 Z M 255.394531 134.417969 C 255.394531 132.28125 257.121094 130.554688 259.261719 130.554688 C 261.417969 130.554688 263.144531 132.28125 263.144531 134.417969 C 263.144531 136.578125 261.417969 138.304688 259.261719 138.304688 C 257.121094 138.304688 255.394531 136.578125 255.394531 134.417969 Z M 254.820312 116.230469 C 254.820312 114.089844 256.566406 112.34375 258.707031 112.34375 C 260.84375 112.34375 262.589844 114.089844 262.589844 116.230469 C 262.589844 118.367188 260.84375 120.113281 258.707031 120.113281 C 256.566406 120.113281 254.820312 118.367188 254.820312 116.230469 Z M 238.4375 110.019531 C 238.4375 107.882812 240.164062 106.15625 242.324219 106.15625 C 244.460938 106.15625 246.207031 107.882812 246.207031 110.019531 C 246.207031 112.179688 244.460938 113.90625 242.324219 113.90625 C 240.164062 113.90625 238.4375 112.179688 238.4375 110.019531 Z M 228.714844 128.519531 C 228.714844 126.382812 230.441406 124.636719 232.601562 124.636719 C 234.738281 124.636719 236.464844 126.382812 236.464844 128.519531 C 236.464844 130.65625 234.738281 132.40625 232.601562 132.40625 C 230.441406 132.40625 228.714844 130.65625 228.714844 128.519531 Z M 241.070312 115.140625 C 240.554688 115.015625 240.0625 114.808594 239.609375 114.523438 C 237.863281 117.542969 236.09375 120.542969 234.328125 123.566406 C 234.820312 123.730469 235.292969 123.976562 235.703125 124.285156 C 237.492188 121.242188 239.28125 118.179688 241.070312 115.140625 Z M 259.261719 129.175781 C 259.136719 126.609375 258.992188 124.039062 258.871094 121.46875 C 258.808594 121.46875 258.765625 121.46875 258.707031 121.46875 C 258.234375 121.46875 257.761719 121.410156 257.289062 121.285156 C 257.429688 123.996094 257.574219 126.710938 257.699219 129.425781 C 258.210938 129.257812 258.726562 129.175781 259.261719 129.175781 Z M 330.234375 127.429688 C 329.925781 127 329.703125 126.527344 329.539062 126.011719 C 325.34375 127.390625 321.171875 128.785156 316.976562 130.164062 C 317.203125 130.636719 317.367188 131.128906 317.449219 131.664062 C 321.707031 130.246094 325.960938 128.847656 330.234375 127.429688 Z M 301.253906 123.691406 C 300.988281 124.140625 300.679688 124.574219 300.289062 124.921875 C 302.753906 126.585938 305.199219 128.253906 307.667969 129.917969 C 307.914062 129.445312 308.242188 129.035156 308.613281 128.664062 C 306.167969 127 303.699219 125.332031 301.253906 123.691406 Z M 317.183594 100.542969 C 316.8125 100.914062 316.382812 101.222656 315.910156 101.449219 C 320.882812 107.882812 325.859375 114.316406 330.8125 120.75 C 331.179688 120.382812 331.613281 120.050781 332.066406 119.804688 C 327.113281 113.390625 322.15625 106.980469 317.183594 100.542969 Z M 308.363281 97.566406 C 304.523438 99.066406 300.699219 100.566406 296.855469 102.066406 L 296.8125 102.085938 L 296.75 102.066406 C 292.519531 101.058594 288.285156 100.070312 284.050781 99.066406 C 284.050781 99.597656 283.96875 100.113281 283.804688 100.628906 C 288.097656 101.632812 292.394531 102.640625 296.691406 103.648438 C 296.835938 103.691406 296.996094 103.691406 297.144531 103.628906 C 301.046875 102.105469 304.933594 100.585938 308.839844 99.066406 C 308.613281 98.59375 308.449219 98.078125 308.363281 97.566406 Z M 299.363281 116.660156 C 299.816406 116.925781 300.226562 117.277344 300.578125 117.667969 C 304.046875 112.242188 307.523438 106.792969 310.996094 101.347656 C 310.523438 101.078125 310.113281 100.769531 309.761719 100.378906 C 306.289062 105.808594 302.835938 111.234375 299.363281 116.660156 Z M 247.503906 110.863281 C 247.421875 111.398438 247.257812 111.890625 247.011719 112.363281 C 249.1875 113.332031 251.367188 114.273438 253.546875 115.21875 C 253.648438 114.707031 253.835938 114.214844 254.082031 113.742188 C 251.882812 112.796875 249.703125 111.832031 247.503906 110.863281 Z M 330.460938 100.585938 C 329.96875 100.75 329.433594 100.832031 328.921875 100.832031 L 333.050781 119.414062 C 333.523438 119.269531 334.039062 119.1875 334.550781 119.1875 C 334.550781 119.1875 334.574219 119.1875 334.59375 119.1875 Z M 247.296875 108.355469 C 255.808594 103.382812 264.335938 98.429688 272.847656 93.453125 L 272.992188 93.371094 L 273.09375 93.496094 C 273.691406 94.171875 274.308594 94.851562 274.902344 95.507812 C 275.253906 95.117188 275.664062 94.789062 276.113281 94.523438 C 275.582031 93.925781 275.046875 93.328125 274.53125 92.753906 L 274.367188 92.570312 L 274.574219 92.445312 C 275.335938 91.992188 276.09375 91.5625 276.875 91.109375 C 285.46875 87.039062 294.039062 82.96875 302.632812 78.902344 L 302.734375 78.859375 L 302.816406 78.921875 C 305.632812 80.894531 308.449219 82.847656 311.261719 84.800781 L 311.347656 84.863281 L 311.347656 84.945312 C 311.53125 87.226562 311.738281 89.507812 311.921875 91.765625 C 312.4375 91.605469 312.949219 91.519531 313.484375 91.519531 C 313.339844 89.816406 313.195312 88.128906 313.050781 86.445312 L 313.011719 86.015625 L 324.171875 93.800781 C 324.378906 93.308594 324.644531 92.859375 324.972656 92.445312 L 312.847656 84 L 312.824219 83.894531 C 312.804688 83.503906 312.765625 83.136719 312.722656 82.742188 L 312.722656 82.601562 L 312.847656 82.539062 C 317.367188 80.832031 322.28125 80.320312 327.027344 81.304688 C 330.644531 82.066406 334.039062 83.648438 336.917969 85.972656 C 337.882812 86.734375 338.765625 87.574219 339.589844 88.480469 L 339.753906 88.664062 L 332.949219 92.570312 C 333.277344 92.980469 333.523438 93.433594 333.707031 93.925781 L 340.738281 89.898438 L 340.84375 90.019531 C 341.933594 91.480469 342.855469 93.082031 343.574219 94.75 C 345.714844 99.765625 345.980469 105.292969 344.871094 110.574219 C 344.828125 110.820312 344.890625 111.089844 345.058594 111.273438 C 349.90625 116.535156 353.832031 122.992188 353.914062 130.347656 C 353.933594 132.652344 353.585938 134.933594 352.90625 137.132812 L 352.824219 137.398438 L 352.597656 137.234375 C 348.097656 133.84375 343.597656 130.453125 339.097656 127.0625 C 338.828125 127.511719 338.5 127.921875 338.128906 128.273438 C 342.792969 131.808594 347.480469 135.34375 352.148438 138.859375 L 352.269531 138.960938 L 352.210938 139.105469 C 350.832031 142.558594 348.753906 145.765625 346.371094 148.621094 L 346.308594 148.703125 L 346.226562 148.703125 C 335.886719 148.703125 325.550781 148.703125 315.230469 148.703125 L 315.046875 148.703125 L 315.027344 148.519531 C 314.675781 144.820312 314.328125 141.121094 313.976562 137.398438 C 313.484375 137.585938 312.96875 137.667969 312.4375 137.6875 C 312.785156 141.285156 313.113281 144.882812 313.464844 148.480469 L 313.484375 148.703125 L 313.257812 148.703125 C 309.496094 148.703125 305.753906 148.703125 301.992188 148.703125 L 301.457031 148.703125 L 301.871094 148.355469 C 302.054688 148.191406 302.160156 147.964844 302.136719 147.71875 C 301.746094 141.242188 301.375 134.789062 300.988281 128.335938 C 300.964844 128.027344 300.761719 127.757812 300.472656 127.65625 C 299.324219 127.226562 298.171875 126.816406 297.019531 126.382812 C 296.894531 126.402344 296.773438 126.402344 296.648438 126.402344 C 295.273438 126.402344 293.976562 125.867188 292.992188 124.921875 C 292.804688 124.839844 292.597656 124.78125 292.394531 124.695312 L 291.902344 124.511719 L 292.394531 124.328125 C 292.414062 124.328125 292.4375 124.328125 292.457031 124.304688 C 292.148438 123.894531 291.878906 123.421875 291.714844 122.929688 C 291.039062 123.175781 290.378906 123.421875 289.703125 123.667969 L 289.640625 123.691406 L 289.578125 123.667969 C 287.5625 122.949219 285.570312 122.207031 283.578125 121.488281 L 283.535156 121.46875 L 283.515625 121.449219 C 279.773438 118.203125 276.011719 114.953125 272.273438 111.707031 L 272.148438 111.605469 L 272.230469 111.460938 C 272.3125 111.316406 272.394531 111.171875 272.496094 111.007812 L 272.519531 110.945312 L 272.582031 110.925781 C 274.59375 110.101562 276.589844 109.261719 278.582031 108.417969 L 278.683594 108.375 L 278.789062 108.457031 C 283.164062 111.890625 287.5625 115.34375 291.964844 118.796875 C 292.1875 118.324219 292.496094 117.894531 292.867188 117.503906 C 288.34375 113.96875 283.824219 110.410156 279.300781 106.855469 C 279.074219 106.691406 278.746094 106.652344 278.480469 106.773438 C 277.101562 107.347656 275.726562 107.925781 274.347656 108.5 L 273.8125 108.726562 L 274.121094 108.210938 C 274.964844 106.753906 275.808594 105.292969 276.648438 103.8125 C 276.175781 103.605469 275.726562 103.320312 275.335938 102.96875 C 274.058594 105.191406 272.765625 107.429688 271.46875 109.652344 L 271.429688 109.710938 L 271.367188 109.734375 C 268.59375 110.902344 265.796875 112.054688 263.023438 113.226562 C 263.308594 113.660156 263.554688 114.132812 263.722656 114.625 C 265.859375 113.742188 268.015625 112.835938 270.15625 111.953125 L 270.339844 111.871094 L 270.421875 112.054688 C 270.464844 112.179688 270.546875 112.300781 270.648438 112.382812 L 270.667969 112.382812 C 274.65625 115.835938 278.644531 119.292969 282.632812 122.746094 C 282.691406 122.804688 282.773438 122.847656 282.878906 122.886719 C 284.214844 123.382812 285.550781 123.855469 286.886719 124.347656 L 287.378906 124.535156 L 286.886719 124.71875 C 282.300781 126.421875 277.71875 128.128906 273.136719 129.835938 L 273.011719 129.875 L 272.929688 129.773438 C 269.476562 126.445312 266.023438 123.113281 262.589844 119.765625 C 262.21875 120.15625 261.808594 120.484375 261.355469 120.75 C 264.972656 124.265625 268.570312 127.757812 272.191406 131.253906 L 272.210938 131.273438 L 272.210938 131.292969 C 275.476562 136.394531 278.746094 141.492188 282.015625 146.566406 L 282.445312 147.246094 L 281.746094 146.855469 C 275.828125 143.484375 269.90625 140.113281 263.96875 136.761719 C 263.742188 137.234375 263.433594 137.667969 263.0625 138.035156 C 269.105469 141.46875 275.148438 144.902344 281.191406 148.335938 L 281.851562 148.703125 L 281.109375 148.703125 C 274.492188 148.703125 267.851562 148.703125 261.234375 148.703125 L 261.070312 148.703125 L 261.050781 148.519531 C 260.71875 145.558594 260.390625 142.578125 260.082031 139.621094 C 259.816406 139.660156 259.527344 139.679688 259.261719 139.679688 C 259.015625 139.679688 258.746094 139.660156 258.5 139.621094 C 258.707031 141.574219 258.933594 143.523438 259.136719 145.476562 L 259.21875 146.300781 L 258.789062 145.601562 C 255.847656 141.078125 252.910156 136.535156 249.992188 132.015625 L 249.96875 132.015625 C 249.867188 131.808594 249.683594 131.664062 249.457031 131.625 C 245.570312 130.78125 241.6875 129.9375 237.800781 129.097656 C 237.738281 129.628906 237.617188 130.144531 237.410156 130.617188 C 241.171875 131.4375 244.953125 132.261719 248.734375 133.0625 L 248.820312 133.082031 L 248.859375 133.144531 C 252.148438 138.242188 255.4375 143.320312 258.726562 148.394531 L 258.933594 148.703125 L 258.5625 148.703125 C 247.648438 148.703125 236.710938 148.703125 225.796875 148.703125 L 225.507812 148.703125 L 225.613281 148.4375 C 227.484375 143.484375 229.351562 138.53125 231.222656 133.574219 C 230.710938 133.453125 230.238281 133.226562 229.785156 132.960938 C 227.8125 138.160156 225.859375 143.359375 223.886719 148.582031 L 223.84375 148.703125 L 223.699219 148.703125 C 221.214844 148.703125 218.707031 148.703125 216.21875 148.703125 L 216.15625 148.703125 L 216.09375 148.664062 C 212.210938 145.828125 209.640625 141.902344 208.796875 137.152344 C 208.160156 133.660156 208.53125 130 209.660156 126.648438 C 210.09375 125.375 210.628906 124.121094 211.285156 122.949219 L 211.367188 122.804688 L 211.511719 122.867188 C 216.792969 124.550781 222.078125 126.257812 227.378906 127.964844 C 227.421875 127.429688 227.566406 126.917969 227.769531 126.445312 C 223.144531 124.964844 218.542969 123.484375 213.917969 121.984375 L 213.382812 121.820312 L 213.917969 121.613281 C 221.871094 118.632812 229.824219 115.652344 237.78125 112.691406 C 237.511719 112.242188 237.328125 111.746094 237.203125 111.234375 C 229.394531 114.152344 221.582031 117.070312 213.792969 120.011719 L 213.054688 120.277344 L 213.566406 119.679688 C 213.9375 119.292969 214.308594 118.878906 214.71875 118.53125 C 216.566406 116.804688 218.972656 115.53125 221.5625 115.734375 C 221.996094 115.757812 222.363281 115.425781 222.40625 115.015625 C 222.40625 114.894531 222.386719 114.789062 222.363281 114.6875 L 222.34375 114.6875 L 222.34375 114.667969 C 222.078125 113.617188 222.242188 112.363281 222.488281 111.316406 C 223.144531 108.519531 224.789062 105.765625 226.679688 103.605469 L 226.761719 103.503906 L 226.90625 103.566406 C 226.949219 103.585938 226.988281 103.605469 227.050781 103.628906 C 230.503906 105.128906 233.957031 106.652344 237.410156 108.171875 C 237.617188 107.65625 237.882812 107.164062 238.234375 106.753906 C 234.882812 105.292969 231.53125 103.851562 228.203125 102.414062 L 227.914062 102.292969 L 228.140625 102.085938 C 230.484375 99.886719 233.300781 98.261719 236.425781 97.402344 C 239.835938 96.476562 243.371094 96.558594 246.804688 97.378906 C 247.214844 97.480469 247.648438 97.214844 247.75 96.785156 C 247.75 96.761719 247.769531 96.722656 247.769531 96.699219 L 247.769531 96.679688 C 248.222656 94.195312 248.902344 91.707031 249.90625 89.382812 C 251.410156 85.867188 253.710938 82.785156 257.226562 81.058594 C 258.417969 80.484375 259.691406 80.074219 261.007812 79.847656 L 261.234375 79.804688 L 261.234375 80.03125 C 261.253906 80.214844 261.316406 80.378906 261.4375 80.523438 C 264.871094 84.347656 268.304688 88.171875 271.757812 92.015625 L 271.921875 92.179688 L 271.714844 92.300781 C 263.332031 97.195312 254.964844 102.085938 246.578125 106.957031 C 246.886719 107.390625 247.132812 107.863281 247.296875 108.355469 Z M 310.378906 82.273438 C 307.996094 80.625 305.632812 78.960938 303.246094 77.316406 C 303 77.152344 302.691406 77.132812 302.425781 77.277344 C 293.667969 81.410156 284.933594 85.558594 276.175781 89.710938 C 276.15625 89.710938 276.136719 89.734375 276.09375 89.753906 C 275.210938 90.265625 274.328125 90.78125 273.441406 91.296875 L 273.300781 91.378906 L 273.195312 91.253906 C 269.804688 87.492188 266.414062 83.710938 263.023438 79.949219 L 262.734375 79.640625 L 263.144531 79.621094 C 265.015625 79.519531 266.90625 79.703125 268.734375 80.03125 C 272.085938 80.648438 275.394531 81.800781 278.5 83.15625 C 278.871094 83.300781 279.300781 83.15625 279.488281 82.828125 L 279.507812 82.804688 C 280.71875 80.914062 282.21875 79.167969 283.925781 77.6875 C 286.804688 75.199219 290.316406 73.371094 294.121094 72.816406 C 298.273438 72.199219 302.238281 73.207031 305.753906 75.445312 C 307.667969 76.679688 309.375 78.222656 310.875 79.929688 L 310.914062 79.96875 L 310.9375 80.050781 C 310.976562 80.523438 311.015625 80.996094 311.039062 81.46875 L 311.058594 81.574219 L 310.976562 81.636719 C 310.8125 81.757812 310.707031 81.941406 310.6875 82.148438 L 310.648438 82.457031 Z M 285.179688 148.601562 C 281.5 142.867188 277.820312 137.113281 274.140625 131.378906 L 273.996094 131.171875 L 274.222656 131.089844 C 279.34375 129.175781 284.460938 127.285156 289.578125 125.375 L 289.640625 125.355469 L 289.703125 125.375 C 292.910156 126.546875 296.136719 127.71875 299.339844 128.890625 L 299.464844 128.929688 L 299.464844 129.074219 C 299.835938 135.304688 300.207031 141.550781 300.578125 147.800781 C 300.597656 148.027344 300.699219 148.210938 300.863281 148.355469 L 301.273438 148.703125 L 300.738281 148.703125 C 295.601562 148.703125 290.484375 148.703125 285.34375 148.703125 L 285.242188 148.703125 Z M 312.476562 79.785156 L 312.457031 79.597656 C 312.4375 79.433594 312.375 79.269531 312.269531 79.148438 C 310.605469 77.238281 308.734375 75.507812 306.597656 74.132812 C 302.753906 71.664062 298.4375 70.597656 293.894531 71.253906 C 289.804688 71.851562 286.023438 73.824219 282.917969 76.515625 C 281.296875 77.914062 279.835938 79.539062 278.601562 81.328125 L 278.519531 81.449219 L 278.375 81.386719 C 275.375 80.132812 272.230469 79.085938 269.023438 78.488281 C 264.871094 77.730469 260.410156 77.769531 256.546875 79.660156 C 252.683594 81.550781 250.132812 84.882812 248.449219 88.765625 C 247.523438 90.90625 246.886719 93.1875 246.414062 95.488281 L 246.371094 95.671875 L 246.1875 95.632812 C 242.796875 94.953125 239.34375 94.996094 236.011719 95.898438 C 232.046875 96.988281 228.550781 99.230469 225.796875 102.25 C 223.617188 104.636719 221.726562 107.78125 220.96875 110.945312 C 220.742188 111.910156 220.597656 112.960938 220.660156 113.945312 L 220.679688 114.152344 L 220.496094 114.152344 C 217.882812 114.316406 215.539062 115.632812 213.648438 117.359375 C 212.355469 118.550781 211.265625 119.949219 210.359375 121.449219 C 210.339844 121.46875 210.339844 121.46875 210.320312 121.488281 L 210.320312 121.511719 C 209.4375 122.972656 208.714844 124.535156 208.183594 126.15625 C 206.96875 129.753906 206.578125 133.679688 207.257812 137.441406 C 208.203125 142.679688 211.058594 146.976562 215.375 150.0625 L 215.398438 150.082031 C 215.539062 150.203125 215.726562 150.265625 215.910156 150.265625 C 218.726562 150.265625 221.5625 150.265625 224.378906 150.265625 C 236.382812 150.265625 248.367188 150.265625 260.371094 150.265625 C 289.066406 150.265625 317.78125 150.265625 346.472656 150.265625 L 346.679688 150.265625 C 346.90625 150.265625 347.132812 150.164062 347.277344 149.980469 C 350.03125 146.710938 352.433594 143.03125 353.914062 139.003906 L 353.933594 139.003906 C 353.933594 138.960938 353.957031 138.941406 353.957031 138.898438 C 354.964844 136.148438 355.496094 133.269531 355.476562 130.328125 C 355.394531 122.722656 351.511719 116.085938 346.558594 110.574219 L 346.496094 110.492188 L 346.496094 110.410156 C 347.5625 104.941406 347.214844 99.289062 345.015625 94.132812 C 343.433594 90.472656 341.007812 87.246094 337.902344 84.757812 C 334.839844 82.273438 331.203125 80.585938 327.335938 79.785156 C 322.488281 78.777344 317.472656 79.210938 312.824219 80.875 L 312.578125 80.976562 L 312.558594 80.710938 C 312.539062 80.402344 312.496094 80.09375 312.476562 79.785156 " fill-opacity="1" fill-rule="evenodd"/></g><g fill="#000000" fill-opacity="1"><g transform="translate(168.83617, 261.868352)"><g><path d="M 65.578125 -62.46875 L 65.578125 -49.96875 L 15.609375 -49.96875 L 15.609375 -37.484375 L 65.578125 -37.484375 L 65.578125 -24.984375 L 15.609375 -24.984375 L 15.609375 -12.5 L 65.578125 -12.5 L 65.578125 0 L 15.609375 0 C 13.328125 0 11.234375 -0.554688 9.328125 -1.671875 C 7.429688 -2.796875 5.921875 -4.304688 4.796875 -6.203125 C 3.679688 -8.109375 3.125 -10.207031 3.125 -12.5 L 3.125 -49.96875 C 3.125 -52.257812 3.679688 -54.351562 4.796875 -56.25 C 5.921875 -58.15625 7.429688 -59.664062 9.328125 -60.78125 C 11.234375 -61.90625 13.328125 -62.46875 15.609375 -62.46875 Z M 65.578125 -62.46875 "/></g></g></g><g fill="#000000" fill-opacity="1"><g transform="translate(237.544931, 261.868352)"><g><path d="M 65.578125 0 L 15.609375 0 C 13.328125 0 11.234375 -0.554688 9.328125 -1.671875 C 7.429688 -2.796875 5.921875 -4.304688 4.796875 -6.203125 C 3.679688 -8.109375 3.125 -10.207031 3.125 -12.5 L 3.125 -49.96875 C 3.125 -52.257812 3.679688 -54.351562 4.796875 -56.25 C 5.921875 -58.15625 7.429688 -59.664062 9.328125 -60.78125 C 11.234375 -61.90625 13.328125 -62.46875 15.609375 -62.46875 L 65.578125 -62.46875 L 65.578125 -49.96875 L 15.609375 -49.96875 L 15.609375 -12.5 L 65.578125 -12.5 Z M 65.578125 0 "/></g></g></g><g fill="#000000" fill-opacity="1"><g transform="translate(306.253691, 261.868352)"><g><path d="M 53.09375 -37.484375 L 53.09375 -62.46875 L 65.578125 -62.46875 L 65.578125 0 L 53.09375 0 L 53.09375 -24.984375 L 15.609375 -24.984375 L 15.609375 0 L 3.125 0 L 3.125 -62.46875 L 15.609375 -62.46875 L 15.609375 -37.484375 Z M 53.09375 -37.484375 "/></g></g></g></svg>